<?xml version="1.0" encoding="UTF-8" standalone="no"?>
<!-- Created with Inkscape (http://www.inkscape.org/) -->

<svg
   width="149.40526mm"
   height="177.15034mm"
   viewBox="0 0 149.40526 177.15034"
   version="1.1"
   id="svg1"
   inkscape:export-filename="casos-borda.svg"
   inkscape:export-xdpi="96"
   inkscape:export-ydpi="96"
   xmlns:inkscape="http://www.inkscape.org/namespaces/inkscape"
   xmlns:sodipodi="http://sodipodi.sourceforge.net/DTD/sodipodi-0.dtd"
   xmlns="http://www.w3.org/2000/svg"
   xmlns:svg="http://www.w3.org/2000/svg">
  <sodipodi:namedview
     id="namedview1"
     pagecolor="#ffffff"
     bordercolor="#000000"
     borderopacity="0.25"
     inkscape:showpageshadow="2"
     inkscape:pageopacity="0.0"
     inkscape:pagecheckerboard="0"
     inkscape:deskcolor="#d1d1d1"
     inkscape:document-units="mm"
     inkscape:lockguides="false"
     inkscape:zoom="1.0167041"
     inkscape:cx="328.02072"
     inkscape:cy="706.20352"
     inkscape:window-width="1270"
     inkscape:window-height="840"
     inkscape:window-x="207"
     inkscape:window-y="145"
     inkscape:window-maximized="0"
     inkscape:current-layer="g125">
    <inkscape:page
       x="0"
       y="0"
       width="149.40526"
       height="177.15034"
       id="page2"
       margin="0"
       bleed="0" />
  </sodipodi:namedview>
  <defs
     id="defs1">
    <marker
       style="overflow:visible"
       id="marker3"
       refX="0"
       refY="0"
       orient="auto-start-reverse"
       inkscape:stockid="Triangle arrow"
       markerWidth="1"
       markerHeight="1"
       viewBox="0 0 1 1"
       inkscape:isstock="true"
       inkscape:collect="always"
       preserveAspectRatio="xMidYMid">
      <path
         transform="scale(0.5)"
         style="fill:context-stroke;fill-rule:evenodd;stroke:context-stroke;stroke-width:1pt"
         d="M 5.77,0 -2.88,5 V -5 Z"
         id="path3" />
    </marker>
    <marker
       style="overflow:visible"
       id="Triangle"
       refX="0"
       refY="0"
       orient="auto-start-reverse"
       inkscape:stockid="Triangle arrow"
       markerWidth="1"
       markerHeight="1"
       viewBox="0 0 1 1"
       inkscape:isstock="true"
       inkscape:collect="always"
       preserveAspectRatio="xMidYMid">
      <path
         transform="scale(0.5)"
         style="fill:context-stroke;fill-rule:evenodd;stroke:context-stroke;stroke-width:1pt"
         d="M 5.77,0 -2.88,5 V -5 Z"
         id="path135" />
    </marker>
    <marker
       style="overflow:visible"
       id="marker3-4"
       refX="0"
       refY="0"
       orient="auto-start-reverse"
       inkscape:stockid="Triangle arrow"
       markerWidth="1"
       markerHeight="1"
       viewBox="0 0 1 1"
       inkscape:isstock="true"
       inkscape:collect="always"
       preserveAspectRatio="xMidYMid">
      <path
         transform="scale(0.5)"
         style="fill:context-stroke;fill-rule:evenodd;stroke:context-stroke;stroke-width:1pt"
         d="M 5.77,0 -2.88,5 V -5 Z"
         id="path3-8" />
    </marker>
  </defs>
  <g
     inkscape:label="Camada 1"
     inkscape:groupmode="layer"
     id="layer1"
     transform="translate(-26.825688,-60.919962)">
    <path
       style="fill:none;stroke:#000000;stroke-width:1;stroke-dasharray:none;marker-end:url(#Triangle)"
       d="M 34.042752,87.959106 H 134.69888"
       id="path1" />
    <path
       style="fill:none;stroke:#000000;stroke-width:1;stroke-dasharray:none;marker-end:url(#marker3)"
       d="M 70.524042,107.99807 79.372079,92.64413"
       id="path2" />
    <path
       style="fill:none;stroke:#000000;stroke-width:1;stroke-dasharray:none;marker-end:url(#marker3-4)"
       d="m 105.72317,88.081899 8.84804,-15.353938"
       id="path2-4" />
    <circle
       style="fill:#000000;fill-opacity:1;stroke:none;stroke-width:1;stroke-dasharray:none"
       id="path4"
       cx="69.882149"
       cy="109.16914"
       r="2.2120087" />
    <circle
       style="fill:#000000;fill-opacity:1;stroke:none;stroke-width:1;stroke-dasharray:none"
       id="path4-1"
       cx="82.00808"
       cy="88.128273"
       r="2.2120087" />
    <circle
       style="fill:#000000;fill-opacity:1;stroke:none;stroke-width:1;stroke-dasharray:none"
       id="path4-1-6"
       cx="105.56353"
       cy="88.444435"
       r="2.2120087" />
    <circle
       style="fill:#000000;fill-opacity:1;stroke:none;stroke-width:1;stroke-dasharray:none"
       id="path4-1-6-2"
       cx="117.40949"
       cy="67.937935"
       r="2.2120087" />
    <g
       inkscape:label=""
       transform="translate(70.91441,112.42225)"
       id="g9">
      <g
         fill="#000000"
         fill-opacity="1"
         id="g4"
         transform="matrix(0.352778,0,0,0.352778,-0.866592,-0.699117)">
        <g
           id="use3"
           transform="translate(1.306,14.263)">
          <path
             d="M 9.21875,-10.28125 C 9,-10.09375 8.375,-9.484375 8.375,-9.25 c 0,0.171875 0.140625,0.328125 0.328125,0.328125 0.140625,0 0.21875,-0.09375 0.34375,-0.265625 0.40625,-0.53125 0.875,-0.84375 1.265625,-1.078125 0.171875,-0.09375 0.296875,-0.15625 0.296875,-0.34375 0,-0.15625 -0.140625,-0.234375 -0.25,-0.328125 -0.46875,-0.328125 -0.59375,-0.78125 -0.640625,-1 -0.0625,-0.140625 -0.109375,-0.34375 -0.359375,-0.34375 -0.09375,0 -0.296875,0.07813 -0.296875,0.328125 0,0.15625 0.09375,0.578125 0.421875,1.03125 h -5.78125 c -0.296875,0 -0.59375,0 -0.59375,0.328125 0,0.3125 0.3125,0.3125 0.59375,0.3125 z m 0,0"
             id="path6" />
        </g>
      </g>
      <g
         fill="#000000"
         fill-opacity="1"
         id="g5"
         transform="matrix(0.352778,0,0,0.352778,-0.866592,-0.699117)">
        <g
           id="use4"
           transform="translate(1.98773,14.263)">
          <path
             d="m 7.875,-6.4375 c 0,-1.09375 -0.5625,-1.15625 -0.6875,-1.15625 -0.421875,0 -0.796875,0.40625 -0.796875,0.765625 0,0.203125 0.125,0.3125 0.1875,0.390625 0.171875,0.15625 0.625,0.625 0.625,1.515625 0,0.71875 -1.03125,4.75 -3.109375,4.75 -1.046875,0 -1.25,-0.875 -1.25,-1.515625 0,-0.859375 0.390625,-2.0625 0.859375,-3.3125 0.28125,-0.703125 0.34375,-0.875 0.34375,-1.21875 0,-0.71875 -0.515625,-1.375 -1.359375,-1.375 -1.578125,0 -2.21875,2.5 -2.21875,2.640625 0,0.0625 0.0625,0.15625 0.1875,0.15625 0.15625,0 0.171875,-0.078125 0.234375,-0.3125 C 1.3125,-6.59375 1.984375,-7.25 2.640625,-7.25 c 0.15625,0 0.4375,0 0.4375,0.5625 0,0.453125 -0.1875,0.953125 -0.4375,1.609375 C 1.8125,-2.875 1.8125,-2.34375 1.8125,-1.921875 c 0,0.375 0.046875,1.078125 0.578125,1.5625 0.625,0.53125 1.484375,0.53125 1.640625,0.53125 2.859375,0 3.84375,-5.625 3.84375,-6.609375 z m 0,0"
             id="path7" />
        </g>
      </g>
      <g
         fill="#000000"
         fill-opacity="1"
         id="g6"
         transform="matrix(0.352778,0,0,0.352778,-0.866592,-0.699117)">
        <g
           id="use5"
           transform="translate(10.142,16.844999)">
          <path
             d="m 3.375,-1.703125 c 0,-0.0625 -0.046875,-0.109375 -0.109375,-0.109375 -0.109375,0 -0.125,0.03125 -0.1875,0.234375 -0.3125,1.09375 -0.796875,1.453125 -1.1875,1.453125 -0.140625,0 -0.3125,-0.03125 -0.3125,-0.390625 0,-0.328125 0.140625,-0.671875 0.28125,-1.03125 L 2.6875,-3.78125 c 0.03125,-0.09375 0.125,-0.3125 0.125,-0.53125 0,-0.5 -0.359375,-0.953125 -0.953125,-0.953125 -1.09375,0 -1.53125,1.734375 -1.53125,1.828125 0,0.046875 0.046875,0.109375 0.125,0.109375 0.109375,0 0.125,-0.046875 0.171875,-0.21875 0.28125,-1 0.734375,-1.484375 1.203125,-1.484375 0.109375,0 0.3125,0.015625 0.3125,0.390625 0,0.3125 -0.15625,0.703125 -0.25,0.96875 l -0.84375,2.21875 C 0.984375,-1.25 0.90625,-1.0625 0.90625,-0.84375 c 0,0.53125 0.375,0.96875 0.953125,0.96875 1.09375,0 1.515625,-1.75 1.515625,-1.828125 z m -0.09375,-5.75 c 0,-0.1875 -0.140625,-0.40625 -0.40625,-0.40625 -0.265625,0 -0.578125,0.265625 -0.578125,0.578125 0,0.296875 0.25,0.390625 0.390625,0.390625 0.328125,0 0.59375,-0.3125 0.59375,-0.5625 z m 0,0"
             id="path8" />
        </g>
      </g>
    </g>
    <g
       inkscape:label=""
       transform="translate(105.77565,91.668137)"
       id="g9-5">
      <g
         fill="#000000"
         fill-opacity="1"
         id="g4-7"
         transform="matrix(0.352778,0,0,0.352778,-0.866592,-0.699117)">
        <g
           id="use3-6"
           transform="translate(1.306,14.263)">
          <path
             d="M 9.21875,-10.28125 C 9,-10.09375 8.375,-9.484375 8.375,-9.25 c 0,0.171875 0.140625,0.328125 0.328125,0.328125 0.140625,0 0.21875,-0.09375 0.34375,-0.265625 0.40625,-0.53125 0.875,-0.84375 1.265625,-1.078125 0.171875,-0.09375 0.296875,-0.15625 0.296875,-0.34375 0,-0.15625 -0.140625,-0.234375 -0.25,-0.328125 -0.46875,-0.328125 -0.59375,-0.78125 -0.640625,-1 -0.0625,-0.140625 -0.109375,-0.34375 -0.359375,-0.34375 -0.09375,0 -0.296875,0.07813 -0.296875,0.328125 0,0.15625 0.09375,0.578125 0.421875,1.03125 h -5.78125 c -0.296875,0 -0.59375,0 -0.59375,0.328125 0,0.3125 0.3125,0.3125 0.59375,0.3125 z m 0,0"
             id="path6-1" />
        </g>
      </g>
      <g
         fill="#000000"
         fill-opacity="1"
         id="g5-8"
         transform="matrix(0.352778,0,0,0.352778,-0.866592,-0.699117)">
        <g
           id="use4-9"
           transform="translate(1.98773,14.263)">
          <path
             d="m 7.875,-6.4375 c 0,-1.09375 -0.5625,-1.15625 -0.6875,-1.15625 -0.421875,0 -0.796875,0.40625 -0.796875,0.765625 0,0.203125 0.125,0.3125 0.1875,0.390625 0.171875,0.15625 0.625,0.625 0.625,1.515625 0,0.71875 -1.03125,4.75 -3.109375,4.75 -1.046875,0 -1.25,-0.875 -1.25,-1.515625 0,-0.859375 0.390625,-2.0625 0.859375,-3.3125 0.28125,-0.703125 0.34375,-0.875 0.34375,-1.21875 0,-0.71875 -0.515625,-1.375 -1.359375,-1.375 -1.578125,0 -2.21875,2.5 -2.21875,2.640625 0,0.0625 0.0625,0.15625 0.1875,0.15625 0.15625,0 0.171875,-0.078125 0.234375,-0.3125 C 1.3125,-6.59375 1.984375,-7.25 2.640625,-7.25 c 0.15625,0 0.4375,0 0.4375,0.5625 0,0.453125 -0.1875,0.953125 -0.4375,1.609375 C 1.8125,-2.875 1.8125,-2.34375 1.8125,-1.921875 c 0,0.375 0.046875,1.078125 0.578125,1.5625 0.625,0.53125 1.484375,0.53125 1.640625,0.53125 2.859375,0 3.84375,-5.625 3.84375,-6.609375 z m 0,0"
             id="path7-2" />
        </g>
      </g>
      <g
         fill="#000000"
         fill-opacity="1"
         id="g6-7"
         transform="matrix(0.352778,0,0,0.352778,-0.866592,-0.699117)">
        <g
           id="use5-9"
           transform="translate(10.142,16.844999)">
          <path
             d="m 3.375,-1.703125 c 0,-0.0625 -0.046875,-0.109375 -0.109375,-0.109375 -0.109375,0 -0.125,0.03125 -0.1875,0.234375 -0.3125,1.09375 -0.796875,1.453125 -1.1875,1.453125 -0.140625,0 -0.3125,-0.03125 -0.3125,-0.390625 0,-0.328125 0.140625,-0.671875 0.28125,-1.03125 L 2.6875,-3.78125 c 0.03125,-0.09375 0.125,-0.3125 0.125,-0.53125 0,-0.5 -0.359375,-0.953125 -0.953125,-0.953125 -1.09375,0 -1.53125,1.734375 -1.53125,1.828125 0,0.046875 0.046875,0.109375 0.125,0.109375 0.109375,0 0.125,-0.046875 0.171875,-0.21875 0.28125,-1 0.734375,-1.484375 1.203125,-1.484375 0.109375,0 0.3125,0.015625 0.3125,0.390625 0,0.3125 -0.15625,0.703125 -0.25,0.96875 l -0.84375,2.21875 C 0.984375,-1.25 0.90625,-1.0625 0.90625,-0.84375 c 0,0.53125 0.375,0.96875 0.953125,0.96875 1.09375,0 1.515625,-1.75 1.515625,-1.828125 z m -0.09375,-5.75 c 0,-0.1875 -0.140625,-0.40625 -0.40625,-0.40625 -0.265625,0 -0.578125,0.265625 -0.578125,0.578125 0,0.296875 0.25,0.390625 0.390625,0.390625 0.328125,0 0.59375,-0.3125 0.59375,-0.5625 z m 0,0"
             id="path8-5" />
        </g>
      </g>
    </g>
    <g
       inkscape:label=""
       transform="translate(83.405753,80.152948)"
       id="g10">
      <g
         fill="#000000"
         fill-opacity="1"
         id="g6-1"
         transform="matrix(0.352778,0,0,0.352778,-0.866592,-0.699117)">
        <g
           id="use5-1"
           transform="translate(1.306,14.263)">
          <path
             d="M 9.21875,-10.28125 C 9,-10.09375 8.375,-9.484375 8.375,-9.25 c 0,0.171875 0.140625,0.328125 0.328125,0.328125 0.140625,0 0.21875,-0.09375 0.34375,-0.265625 0.40625,-0.53125 0.875,-0.84375 1.265625,-1.078125 0.171875,-0.09375 0.296875,-0.15625 0.296875,-0.34375 0,-0.15625 -0.140625,-0.234375 -0.25,-0.328125 -0.46875,-0.328125 -0.59375,-0.78125 -0.640625,-1 -0.0625,-0.140625 -0.109375,-0.34375 -0.359375,-0.34375 -0.09375,0 -0.296875,0.07813 -0.296875,0.328125 0,0.15625 0.09375,0.578125 0.421875,1.03125 h -5.78125 c -0.296875,0 -0.59375,0 -0.59375,0.328125 0,0.3125 0.3125,0.3125 0.59375,0.3125 z m 0,0"
             id="path9" />
        </g>
      </g>
      <g
         fill="#000000"
         fill-opacity="1"
         id="g7"
         transform="matrix(0.352778,0,0,0.352778,-0.866592,-0.699117)">
        <g
           id="use6"
           transform="translate(1.98773,14.263)">
          <path
             d="m 7.875,-6.4375 c 0,-1.09375 -0.5625,-1.15625 -0.6875,-1.15625 -0.421875,0 -0.796875,0.40625 -0.796875,0.765625 0,0.203125 0.125,0.3125 0.1875,0.390625 0.171875,0.15625 0.625,0.625 0.625,1.515625 0,0.71875 -1.03125,4.75 -3.109375,4.75 -1.046875,0 -1.25,-0.875 -1.25,-1.515625 0,-0.859375 0.390625,-2.0625 0.859375,-3.3125 0.28125,-0.703125 0.34375,-0.875 0.34375,-1.21875 0,-0.71875 -0.515625,-1.375 -1.359375,-1.375 -1.578125,0 -2.21875,2.5 -2.21875,2.640625 0,0.0625 0.0625,0.15625 0.1875,0.15625 0.15625,0 0.171875,-0.078125 0.234375,-0.3125 C 1.3125,-6.59375 1.984375,-7.25 2.640625,-7.25 c 0.15625,0 0.4375,0 0.4375,0.5625 0,0.453125 -0.1875,0.953125 -0.4375,1.609375 C 1.8125,-2.875 1.8125,-2.34375 1.8125,-1.921875 c 0,0.375 0.046875,1.078125 0.578125,1.5625 0.625,0.53125 1.484375,0.53125 1.640625,0.53125 2.859375,0 3.84375,-5.625 3.84375,-6.609375 z m 0,0"
             id="path10" />
        </g>
      </g>
      <g
         fill="#000000"
         fill-opacity="1"
         id="g8"
         transform="matrix(0.352778,0,0,0.352778,-0.866592,-0.699117)">
        <g
           id="use7"
           transform="translate(10.142,16.844999)">
          <path
             d="m 3.375,-1.703125 c 0,-0.0625 -0.046875,-0.109375 -0.109375,-0.109375 -0.109375,0 -0.125,0.03125 -0.1875,0.234375 -0.3125,1.09375 -0.796875,1.453125 -1.1875,1.453125 -0.140625,0 -0.3125,-0.03125 -0.3125,-0.390625 0,-0.328125 0.140625,-0.671875 0.28125,-1.03125 L 2.6875,-3.78125 c 0.03125,-0.09375 0.125,-0.3125 0.125,-0.53125 0,-0.5 -0.359375,-0.953125 -0.953125,-0.953125 -1.09375,0 -1.53125,1.734375 -1.53125,1.828125 0,0.046875 0.046875,0.109375 0.125,0.109375 0.109375,0 0.125,-0.046875 0.171875,-0.21875 0.28125,-1 0.734375,-1.484375 1.203125,-1.484375 0.109375,0 0.3125,0.015625 0.3125,0.390625 0,0.3125 -0.15625,0.703125 -0.25,0.96875 l -0.84375,2.21875 C 0.984375,-1.25 0.90625,-1.0625 0.90625,-0.84375 c 0,0.53125 0.375,0.96875 0.953125,0.96875 1.09375,0 1.515625,-1.75 1.515625,-1.828125 z m -0.09375,-5.75 c 0,-0.1875 -0.140625,-0.40625 -0.40625,-0.40625 -0.265625,0 -0.578125,0.265625 -0.578125,0.578125 0,0.296875 0.25,0.390625 0.390625,0.390625 0.328125,0 0.59375,-0.3125 0.59375,-0.5625 z m 0,0"
             id="path11" />
        </g>
      </g>
      <g
         fill="#000000"
         fill-opacity="1"
         id="g9-1"
         transform="matrix(0.352778,0,0,0.352778,-0.866592,-0.699117)">
        <g
           id="use8"
           transform="translate(14.135037,16.844999)">
          <path
             d="M 4.765625,-2.765625 H 8.0625 c 0.171875,0 0.390625,0 0.390625,-0.203125 0,-0.234375 -0.203125,-0.234375 -0.390625,-0.234375 H 4.765625 V -6.5 c 0,-0.171875 0,-0.390625 -0.21875,-0.390625 -0.21875,0 -0.21875,0.203125 -0.21875,0.390625 v 3.296875 H 1.03125 c -0.171875,0 -0.390625,0 -0.390625,0.21875 0,0.21875 0.203125,0.21875 0.390625,0.21875 H 4.328125 V 0.53125 c 0,0.171875 0,0.390625 0.21875,0.390625 0.21875,0 0.21875,-0.203125 0.21875,-0.390625 z m 0,0"
             id="path12" />
        </g>
        <g
           id="use9"
           transform="translate(23.240116,16.844999)">
          <path
             d="m 3.4375,-7.65625 c 0,-0.28125 0,-0.296875 -0.234375,-0.296875 C 2.921875,-7.625 2.3125,-7.1875 1.09375,-7.1875 v 0.34375 c 0.265625,0 0.859375,0 1.53125,-0.296875 v 6.21875 c 0,0.4375 -0.046875,0.578125 -1.09375,0.578125 h -0.375 V 0 c 0.328125,-0.03125 1.484375,-0.03125 1.875,-0.03125 0.40625,0 1.546875,0 1.875,0.03125 v -0.34375 h -0.375 c -1.046875,0 -1.09375,-0.140625 -1.09375,-0.578125 z m 0,0"
             id="path13" />
        </g>
      </g>
    </g>
    <g
       inkscape:label=""
       transform="translate(119.99795,60.919955)"
       id="g10-3">
      <g
         fill="#000000"
         fill-opacity="1"
         id="g6-1-3"
         transform="matrix(0.352778,0,0,0.352778,-0.866592,-0.699117)">
        <g
           id="use5-1-4"
           transform="translate(1.306,14.263)">
          <path
             d="M 9.21875,-10.28125 C 9,-10.09375 8.375,-9.484375 8.375,-9.25 c 0,0.171875 0.140625,0.328125 0.328125,0.328125 0.140625,0 0.21875,-0.09375 0.34375,-0.265625 0.40625,-0.53125 0.875,-0.84375 1.265625,-1.078125 0.171875,-0.09375 0.296875,-0.15625 0.296875,-0.34375 0,-0.15625 -0.140625,-0.234375 -0.25,-0.328125 -0.46875,-0.328125 -0.59375,-0.78125 -0.640625,-1 -0.0625,-0.140625 -0.109375,-0.34375 -0.359375,-0.34375 -0.09375,0 -0.296875,0.07813 -0.296875,0.328125 0,0.15625 0.09375,0.578125 0.421875,1.03125 h -5.78125 c -0.296875,0 -0.59375,0 -0.59375,0.328125 0,0.3125 0.3125,0.3125 0.59375,0.3125 z m 0,0"
             id="path9-1" />
        </g>
      </g>
      <g
         fill="#000000"
         fill-opacity="1"
         id="g7-1"
         transform="matrix(0.352778,0,0,0.352778,-0.866592,-0.699117)">
        <g
           id="use6-3"
           transform="translate(1.98773,14.263)">
          <path
             d="m 7.875,-6.4375 c 0,-1.09375 -0.5625,-1.15625 -0.6875,-1.15625 -0.421875,0 -0.796875,0.40625 -0.796875,0.765625 0,0.203125 0.125,0.3125 0.1875,0.390625 0.171875,0.15625 0.625,0.625 0.625,1.515625 0,0.71875 -1.03125,4.75 -3.109375,4.75 -1.046875,0 -1.25,-0.875 -1.25,-1.515625 0,-0.859375 0.390625,-2.0625 0.859375,-3.3125 0.28125,-0.703125 0.34375,-0.875 0.34375,-1.21875 0,-0.71875 -0.515625,-1.375 -1.359375,-1.375 -1.578125,0 -2.21875,2.5 -2.21875,2.640625 0,0.0625 0.0625,0.15625 0.1875,0.15625 0.15625,0 0.171875,-0.078125 0.234375,-0.3125 C 1.3125,-6.59375 1.984375,-7.25 2.640625,-7.25 c 0.15625,0 0.4375,0 0.4375,0.5625 0,0.453125 -0.1875,0.953125 -0.4375,1.609375 C 1.8125,-2.875 1.8125,-2.34375 1.8125,-1.921875 c 0,0.375 0.046875,1.078125 0.578125,1.5625 0.625,0.53125 1.484375,0.53125 1.640625,0.53125 2.859375,0 3.84375,-5.625 3.84375,-6.609375 z m 0,0"
             id="path10-8" />
        </g>
      </g>
      <g
         fill="#000000"
         fill-opacity="1"
         id="g8-7"
         transform="matrix(0.352778,0,0,0.352778,-0.866592,-0.699117)">
        <g
           id="use7-4"
           transform="translate(10.142,16.844999)">
          <path
             d="m 3.375,-1.703125 c 0,-0.0625 -0.046875,-0.109375 -0.109375,-0.109375 -0.109375,0 -0.125,0.03125 -0.1875,0.234375 -0.3125,1.09375 -0.796875,1.453125 -1.1875,1.453125 -0.140625,0 -0.3125,-0.03125 -0.3125,-0.390625 0,-0.328125 0.140625,-0.671875 0.28125,-1.03125 L 2.6875,-3.78125 c 0.03125,-0.09375 0.125,-0.3125 0.125,-0.53125 0,-0.5 -0.359375,-0.953125 -0.953125,-0.953125 -1.09375,0 -1.53125,1.734375 -1.53125,1.828125 0,0.046875 0.046875,0.109375 0.125,0.109375 0.109375,0 0.125,-0.046875 0.171875,-0.21875 0.28125,-1 0.734375,-1.484375 1.203125,-1.484375 0.109375,0 0.3125,0.015625 0.3125,0.390625 0,0.3125 -0.15625,0.703125 -0.25,0.96875 l -0.84375,2.21875 C 0.984375,-1.25 0.90625,-1.0625 0.90625,-0.84375 c 0,0.53125 0.375,0.96875 0.953125,0.96875 1.09375,0 1.515625,-1.75 1.515625,-1.828125 z m -0.09375,-5.75 c 0,-0.1875 -0.140625,-0.40625 -0.40625,-0.40625 -0.265625,0 -0.578125,0.265625 -0.578125,0.578125 0,0.296875 0.25,0.390625 0.390625,0.390625 0.328125,0 0.59375,-0.3125 0.59375,-0.5625 z m 0,0"
             id="path11-2" />
        </g>
      </g>
      <g
         fill="#000000"
         fill-opacity="1"
         id="g9-1-7"
         transform="matrix(0.352778,0,0,0.352778,-0.866592,-0.699117)">
        <g
           id="use8-7"
           transform="translate(14.135037,16.844999)">
          <path
             d="M 4.765625,-2.765625 H 8.0625 c 0.171875,0 0.390625,0 0.390625,-0.203125 0,-0.234375 -0.203125,-0.234375 -0.390625,-0.234375 H 4.765625 V -6.5 c 0,-0.171875 0,-0.390625 -0.21875,-0.390625 -0.21875,0 -0.21875,0.203125 -0.21875,0.390625 v 3.296875 H 1.03125 c -0.171875,0 -0.390625,0 -0.390625,0.21875 0,0.21875 0.203125,0.21875 0.390625,0.21875 H 4.328125 V 0.53125 c 0,0.171875 0,0.390625 0.21875,0.390625 0.21875,0 0.21875,-0.203125 0.21875,-0.390625 z m 0,0"
             id="path12-9" />
        </g>
        <g
           id="use9-3"
           transform="translate(23.240116,16.844999)">
          <path
             d="m 3.4375,-7.65625 c 0,-0.28125 0,-0.296875 -0.234375,-0.296875 C 2.921875,-7.625 2.3125,-7.1875 1.09375,-7.1875 v 0.34375 c 0.265625,0 0.859375,0 1.53125,-0.296875 v 6.21875 c 0,0.4375 -0.046875,0.578125 -1.09375,0.578125 h -0.375 V 0 c 0.328125,-0.03125 1.484375,-0.03125 1.875,-0.03125 0.40625,0 1.546875,0 1.875,0.03125 v -0.34375 h -0.375 c -1.046875,0 -1.09375,-0.140625 -1.09375,-0.578125 z m 0,0"
             id="path13-1" />
        </g>
      </g>
    </g>
    <text
       xml:space="preserve"
       style="font-size:6.35px;writing-mode:lr-tb;direction:ltr;fill:#000000;fill-opacity:1;stroke:none;stroke-width:1;stroke-dasharray:none"
       x="89.521294"
       y="73.126404"
       id="text10"><tspan
         sodipodi:role="line"
         id="tspan10"
         style="font-size:6.35px;stroke-width:1"
         x="89.521294"
         y="73.126404">ou</tspan></text>
    <g
       inkscape:label=""
       transform="translate(149.7922,83.536022)"
       id="g12">
      <g
         fill="#000000"
         fill-opacity="1"
         id="g6-1-1"
         transform="matrix(0.352778,0,0,0.352778,-0.868451,-0.6152)">
        <g
           id="use5-1-1"
           transform="translate(1.993,16.475)">
          <path
             d="m 5.921875,-1.046875 c 0.375,1.03125 1.453125,1.21875 2.109375,1.21875 1.296875,0 2.078125,-1.140625 2.5625,-2.328125 0.390625,-1 1.03125,-3.265625 1.03125,-4.28125 0,-1.046875 -0.53125,-1.15625 -0.6875,-1.15625 -0.421875,0 -0.796875,0.40625 -0.796875,0.765625 0,0.203125 0.125,0.3125 0.203125,0.390625 0.15625,0.15625 0.609375,0.625 0.609375,1.515625 0,0.578125 -0.484375,2.203125 -0.84375,3.015625 -0.484375,1.046875 -1.125,1.734375 -2.015625,1.734375 -0.96875,0 -1.28125,-0.71875 -1.28125,-1.515625 0,-0.5 0.15625,-1.109375 0.234375,-1.390625 L 7.765625,-5.96875 C 7.859375,-6.3125 8,-6.921875 8,-6.984375 8,-7.25 7.796875,-7.421875 7.546875,-7.421875 c -0.5,0 -0.625,0.4375 -0.734375,0.84375 C 6.640625,-5.90625 5.921875,-3 5.859375,-2.625 5.78125,-2.328125 5.78125,-2.140625 5.78125,-1.75 c 0,0.40625 -0.546875,1.0625 -0.5625,1.09375 -0.1875,0.1875 -0.46875,0.484375 -1,0.484375 -1.359375,0 -1.359375,-1.296875 -1.359375,-1.578125 0,-0.5625 0.125,-1.3125 0.890625,-3.359375 0.203125,-0.53125 0.296875,-0.765625 0.296875,-1.109375 0,-0.71875 -0.515625,-1.375 -1.359375,-1.375 -1.578125,0 -2.21875,2.5 -2.21875,2.640625 0,0.0625 0.0625,0.15625 0.1875,0.15625 0.15625,0 0.171875,-0.078125 0.234375,-0.3125 C 1.328125,-6.625 2,-7.25 2.640625,-7.25 c 0.171875,0 0.4375,0.015625 0.4375,0.5625 0,0.09375 0,0.453125 -0.28125,1.21875 -0.8125,2.140625 -0.984375,2.84375 -0.984375,3.5 0,1.8125 1.46875,2.140625 2.359375,2.140625 0.28125,0 1.0625,0 1.75,-1.21875 z m 0,0"
             id="path11-1" />
        </g>
      </g>
      <g
         fill="#000000"
         fill-opacity="1"
         id="g7-1-1"
         transform="matrix(0.352778,0,0,0.352778,-0.868451,-0.6152)">
        <g
           id="use6-1"
           transform="translate(19.292755,16.475)">
          <path
             d="m 11.078125,-5.53125 c 0.25,0 0.515625,0 0.515625,-0.28125 C 11.59375,-6.125 11.296875,-6.125 11,-6.125 H 1.375 c -0.296875,0 -0.578125,0 -0.578125,0.3125 0,0.28125 0.25,0.28125 0.515625,0.28125 z M 11,-2.46875 c 0.296875,0 0.59375,0 0.59375,-0.296875 0,-0.296875 -0.265625,-0.296875 -0.515625,-0.296875 H 1.3125 c -0.265625,0 -0.515625,0 -0.515625,0.296875 0,0.296875 0.28125,0.296875 0.578125,0.296875 z m 0,0"
             id="path12-1" />
        </g>
      </g>
      <g
         fill="#000000"
         fill-opacity="1"
         id="g8-1"
         transform="matrix(0.352778,0,0,0.352778,-0.868451,-0.6152)">
        <g
           id="use7-1"
           transform="translate(36.470284,16.475)">
          <path
             d="m 5.921875,-1.046875 c 0.375,1.03125 1.453125,1.21875 2.109375,1.21875 1.296875,0 2.078125,-1.140625 2.5625,-2.328125 0.390625,-1 1.03125,-3.265625 1.03125,-4.28125 0,-1.046875 -0.53125,-1.15625 -0.6875,-1.15625 -0.421875,0 -0.796875,0.40625 -0.796875,0.765625 0,0.203125 0.125,0.3125 0.203125,0.390625 0.15625,0.15625 0.609375,0.625 0.609375,1.515625 0,0.578125 -0.484375,2.203125 -0.84375,3.015625 -0.484375,1.046875 -1.125,1.734375 -2.015625,1.734375 -0.96875,0 -1.28125,-0.71875 -1.28125,-1.515625 0,-0.5 0.15625,-1.109375 0.234375,-1.390625 L 7.765625,-5.96875 C 7.859375,-6.3125 8,-6.921875 8,-6.984375 8,-7.25 7.796875,-7.421875 7.546875,-7.421875 c -0.5,0 -0.625,0.4375 -0.734375,0.84375 C 6.640625,-5.90625 5.921875,-3 5.859375,-2.625 5.78125,-2.328125 5.78125,-2.140625 5.78125,-1.75 c 0,0.40625 -0.546875,1.0625 -0.5625,1.09375 -0.1875,0.1875 -0.46875,0.484375 -1,0.484375 -1.359375,0 -1.359375,-1.296875 -1.359375,-1.578125 0,-0.5625 0.125,-1.3125 0.890625,-3.359375 0.203125,-0.53125 0.296875,-0.765625 0.296875,-1.109375 0,-0.71875 -0.515625,-1.375 -1.359375,-1.375 -1.578125,0 -2.21875,2.5 -2.21875,2.640625 0,0.0625 0.0625,0.15625 0.1875,0.15625 0.15625,0 0.171875,-0.078125 0.234375,-0.3125 C 1.328125,-6.625 2,-7.25 2.640625,-7.25 c 0.171875,0 0.4375,0.015625 0.4375,0.5625 0,0.09375 0,0.453125 -0.28125,1.21875 -0.8125,2.140625 -0.984375,2.84375 -0.984375,3.5 0,1.8125 1.46875,2.140625 2.359375,2.140625 0.28125,0 1.0625,0 1.75,-1.21875 z m 0,0"
             id="path13-1-1" />
        </g>
      </g>
      <g
         fill="#000000"
         fill-opacity="1"
         id="g9-1-1"
         transform="matrix(0.352778,0,0,0.352778,-0.868451,-0.6152)">
        <g
           id="use8-1"
           transform="translate(52.805977,16.475)">
          <path
             d="m 6.484375,-4 h 4.5625 c 0.25,0 0.546875,0 0.546875,-0.28125 0,-0.3125 -0.28125,-0.3125 -0.546875,-0.3125 h -4.5625 v -4.5625 c 0,-0.25 0,-0.53125 -0.28125,-0.53125 -0.3125,0 -0.3125,0.265625 -0.3125,0.53125 v 4.5625 h -4.5625 c -0.25,0 -0.53125,0 -0.53125,0.28125 C 0.796875,-4 1.0625,-4 1.328125,-4 h 4.5625 v 4.5625 c 0,0.25 0,0.546875 0.296875,0.546875 0.296875,0 0.296875,-0.28125 0.296875,-0.546875 z m 0,0"
             id="path14" />
        </g>
      </g>
      <g
         fill="#000000"
         fill-opacity="1"
         id="g10-1"
         transform="matrix(0.352778,0,0,0.352778,-0.868451,-0.6152)">
        <g
           id="use9-1"
           transform="translate(70.213997,9.6969995)">
          <path
             d="m 3.4375,-7.65625 c 0,-0.28125 0,-0.296875 -0.234375,-0.296875 C 2.921875,-7.625 2.3125,-7.1875 1.09375,-7.1875 v 0.34375 c 0.265625,0 0.859375,0 1.53125,-0.296875 v 6.21875 c 0,0.4375 -0.046875,0.578125 -1.09375,0.578125 h -0.375 V 0 c 0.328125,-0.03125 1.484375,-0.03125 1.875,-0.03125 0.40625,0 1.546875,0 1.875,0.03125 v -0.34375 h -0.375 c -1.046875,0 -1.09375,-0.140625 -1.09375,-0.578125 z m 0,0"
             id="path15" />
        </g>
      </g>
      <path
         fill="none"
         stroke-width="0.717"
         stroke-linecap="butt"
         stroke-linejoin="miter"
         stroke="#000000"
         stroke-opacity="1"
         stroke-miterlimit="10"
         d="m 67.753094,10.428 h 5.851562"
         id="path10-1"
         transform="scale(0.352778)" />
      <g
         fill="#000000"
         fill-opacity="1"
         id="g11"
         transform="matrix(0.352778,0,0,0.352778,-0.868451,-0.6152)">
        <g
           id="use10"
           transform="translate(70.213997,22.410999)">
          <path
             d="M 5.265625,-2.015625 H 5 c -0.046875,0.203125 -0.140625,0.875 -0.25,1.0625 C 4.65625,-0.84375 3.984375,-0.84375 3.625,-0.84375 H 1.40625 c 0.328125,-0.28125 1.0625,-1.046875 1.359375,-1.328125 1.828125,-1.671875 2.5,-2.296875 2.5,-3.484375 0,-1.375 -1.09375,-2.296875 -2.484375,-2.296875 -1.375,0 -2.203125,1.1875 -2.203125,2.21875 0,0.609375 0.53125,0.609375 0.5625,0.609375 0.265625,0 0.5625,-0.1875 0.5625,-0.5625 0,-0.34375 -0.21875,-0.5625 -0.5625,-0.5625 -0.09375,0 -0.125,0 -0.15625,0.015625 0.21875,-0.8125 0.875,-1.375 1.640625,-1.375 1.015625,0 1.640625,0.859375 1.640625,1.953125 C 4.265625,-4.640625 3.6875,-3.75 3,-2.984375 L 0.578125,-0.28125 V 0 h 4.375 z m 0,0"
             id="path16" />
        </g>
      </g>
    </g>
  </g>
  <g
     inkscape:label="Camada 1"
     inkscape:groupmode="layer"
     id="g70"
     transform="translate(-29.878968,17.411138)">
    <path
       style="fill:none;stroke:#000000;stroke-width:1;stroke-dasharray:none;marker-end:url(#Triangle)"
       d="M 34.042752,87.959106 H 134.69888"
       id="path17" />
    <path
       style="fill:none;stroke:#000000;stroke-width:1;stroke-dasharray:none;marker-start:url(#marker3)"
       d="M 72.866169,104.615 81.714206,89.261058"
       id="path18" />
    <path
       style="fill:none;stroke:#000000;stroke-width:1;stroke-dasharray:none;marker-start:url(#marker3)"
       d="m 107.83985,83.848563 8.84804,-15.353938"
       id="path19" />
    <circle
       style="fill:#000000;fill-opacity:1;stroke:none;stroke-width:1;stroke-dasharray:none"
       id="circle19"
       cx="69.882149"
       cy="109.16914"
       r="2.2120087" />
    <circle
       style="fill:#000000;fill-opacity:1;stroke:none;stroke-width:1;stroke-dasharray:none"
       id="circle20"
       cx="82.00808"
       cy="88.128273"
       r="2.2120087" />
    <circle
       style="fill:#000000;fill-opacity:1;stroke:none;stroke-width:1;stroke-dasharray:none"
       id="circle21"
       cx="105.03436"
       cy="88.444435"
       r="2.2120087" />
    <circle
       style="fill:#000000;fill-opacity:1;stroke:none;stroke-width:1;stroke-dasharray:none"
       id="circle22"
       cx="116.88033"
       cy="67.937935"
       r="2.2120087" />
    <g
       inkscape:label=""
       transform="translate(84.446699,80.933655)"
       id="g28">
      <g
         fill="#000000"
         fill-opacity="1"
         id="g23"
         transform="matrix(0.352778,0,0,0.352778,-0.866592,-0.699117)">
        <g
           id="g22"
           transform="translate(1.306,14.263)">
          <path
             d="M 9.21875,-10.28125 C 9,-10.09375 8.375,-9.484375 8.375,-9.25 c 0,0.171875 0.140625,0.328125 0.328125,0.328125 0.140625,0 0.21875,-0.09375 0.34375,-0.265625 0.40625,-0.53125 0.875,-0.84375 1.265625,-1.078125 0.171875,-0.09375 0.296875,-0.15625 0.296875,-0.34375 0,-0.15625 -0.140625,-0.234375 -0.25,-0.328125 -0.46875,-0.328125 -0.59375,-0.78125 -0.640625,-1 -0.0625,-0.140625 -0.109375,-0.34375 -0.359375,-0.34375 -0.09375,0 -0.296875,0.07813 -0.296875,0.328125 0,0.15625 0.09375,0.578125 0.421875,1.03125 h -5.78125 c -0.296875,0 -0.59375,0 -0.59375,0.328125 0,0.3125 0.3125,0.3125 0.59375,0.3125 z m 0,0"
             id="path22" />
        </g>
      </g>
      <g
         fill="#000000"
         fill-opacity="1"
         id="g25"
         transform="matrix(0.352778,0,0,0.352778,-0.866592,-0.699117)">
        <g
           id="g24"
           transform="translate(1.98773,14.263)">
          <path
             d="m 7.875,-6.4375 c 0,-1.09375 -0.5625,-1.15625 -0.6875,-1.15625 -0.421875,0 -0.796875,0.40625 -0.796875,0.765625 0,0.203125 0.125,0.3125 0.1875,0.390625 0.171875,0.15625 0.625,0.625 0.625,1.515625 0,0.71875 -1.03125,4.75 -3.109375,4.75 -1.046875,0 -1.25,-0.875 -1.25,-1.515625 0,-0.859375 0.390625,-2.0625 0.859375,-3.3125 0.28125,-0.703125 0.34375,-0.875 0.34375,-1.21875 0,-0.71875 -0.515625,-1.375 -1.359375,-1.375 -1.578125,0 -2.21875,2.5 -2.21875,2.640625 0,0.0625 0.0625,0.15625 0.1875,0.15625 0.15625,0 0.171875,-0.078125 0.234375,-0.3125 C 1.3125,-6.59375 1.984375,-7.25 2.640625,-7.25 c 0.15625,0 0.4375,0 0.4375,0.5625 0,0.453125 -0.1875,0.953125 -0.4375,1.609375 C 1.8125,-2.875 1.8125,-2.34375 1.8125,-1.921875 c 0,0.375 0.046875,1.078125 0.578125,1.5625 0.625,0.53125 1.484375,0.53125 1.640625,0.53125 2.859375,0 3.84375,-5.625 3.84375,-6.609375 z m 0,0"
             id="path23" />
        </g>
      </g>
      <g
         fill="#000000"
         fill-opacity="1"
         id="g27"
         transform="matrix(0.352778,0,0,0.352778,-0.866592,-0.699117)">
        <g
           id="g26"
           transform="translate(10.142,16.844999)">
          <path
             d="m 3.375,-1.703125 c 0,-0.0625 -0.046875,-0.109375 -0.109375,-0.109375 -0.109375,0 -0.125,0.03125 -0.1875,0.234375 -0.3125,1.09375 -0.796875,1.453125 -1.1875,1.453125 -0.140625,0 -0.3125,-0.03125 -0.3125,-0.390625 0,-0.328125 0.140625,-0.671875 0.28125,-1.03125 L 2.6875,-3.78125 c 0.03125,-0.09375 0.125,-0.3125 0.125,-0.53125 0,-0.5 -0.359375,-0.953125 -0.953125,-0.953125 -1.09375,0 -1.53125,1.734375 -1.53125,1.828125 0,0.046875 0.046875,0.109375 0.125,0.109375 0.109375,0 0.125,-0.046875 0.171875,-0.21875 0.28125,-1 0.734375,-1.484375 1.203125,-1.484375 0.109375,0 0.3125,0.015625 0.3125,0.390625 0,0.3125 -0.15625,0.703125 -0.25,0.96875 l -0.84375,2.21875 C 0.984375,-1.25 0.90625,-1.0625 0.90625,-0.84375 c 0,0.53125 0.375,0.96875 0.953125,0.96875 1.09375,0 1.515625,-1.75 1.515625,-1.828125 z m -0.09375,-5.75 c 0,-0.1875 -0.140625,-0.40625 -0.40625,-0.40625 -0.265625,0 -0.578125,0.265625 -0.578125,0.578125 0,0.296875 0.25,0.390625 0.390625,0.390625 0.328125,0 0.59375,-0.3125 0.59375,-0.5625 z m 0,0"
             id="path25" />
        </g>
      </g>
    </g>
    <g
       inkscape:label=""
       transform="translate(120.86936,61.480724)"
       id="g35">
      <g
         fill="#000000"
         fill-opacity="1"
         id="g30"
         transform="matrix(0.352778,0,0,0.352778,-0.866592,-0.699117)">
        <g
           id="g29"
           transform="translate(1.306,14.263)">
          <path
             d="M 9.21875,-10.28125 C 9,-10.09375 8.375,-9.484375 8.375,-9.25 c 0,0.171875 0.140625,0.328125 0.328125,0.328125 0.140625,0 0.21875,-0.09375 0.34375,-0.265625 0.40625,-0.53125 0.875,-0.84375 1.265625,-1.078125 0.171875,-0.09375 0.296875,-0.15625 0.296875,-0.34375 0,-0.15625 -0.140625,-0.234375 -0.25,-0.328125 -0.46875,-0.328125 -0.59375,-0.78125 -0.640625,-1 -0.0625,-0.140625 -0.109375,-0.34375 -0.359375,-0.34375 -0.09375,0 -0.296875,0.07813 -0.296875,0.328125 0,0.15625 0.09375,0.578125 0.421875,1.03125 h -5.78125 c -0.296875,0 -0.59375,0 -0.59375,0.328125 0,0.3125 0.3125,0.3125 0.59375,0.3125 z m 0,0"
             id="path28" />
        </g>
      </g>
      <g
         fill="#000000"
         fill-opacity="1"
         id="g32"
         transform="matrix(0.352778,0,0,0.352778,-0.866592,-0.699117)">
        <g
           id="g31"
           transform="translate(1.98773,14.263)">
          <path
             d="m 7.875,-6.4375 c 0,-1.09375 -0.5625,-1.15625 -0.6875,-1.15625 -0.421875,0 -0.796875,0.40625 -0.796875,0.765625 0,0.203125 0.125,0.3125 0.1875,0.390625 0.171875,0.15625 0.625,0.625 0.625,1.515625 0,0.71875 -1.03125,4.75 -3.109375,4.75 -1.046875,0 -1.25,-0.875 -1.25,-1.515625 0,-0.859375 0.390625,-2.0625 0.859375,-3.3125 0.28125,-0.703125 0.34375,-0.875 0.34375,-1.21875 0,-0.71875 -0.515625,-1.375 -1.359375,-1.375 -1.578125,0 -2.21875,2.5 -2.21875,2.640625 0,0.0625 0.0625,0.15625 0.1875,0.15625 0.15625,0 0.171875,-0.078125 0.234375,-0.3125 C 1.3125,-6.59375 1.984375,-7.25 2.640625,-7.25 c 0.15625,0 0.4375,0 0.4375,0.5625 0,0.453125 -0.1875,0.953125 -0.4375,1.609375 C 1.8125,-2.875 1.8125,-2.34375 1.8125,-1.921875 c 0,0.375 0.046875,1.078125 0.578125,1.5625 0.625,0.53125 1.484375,0.53125 1.640625,0.53125 2.859375,0 3.84375,-5.625 3.84375,-6.609375 z m 0,0"
             id="path30" />
        </g>
      </g>
      <g
         fill="#000000"
         fill-opacity="1"
         id="g34"
         transform="matrix(0.352778,0,0,0.352778,-0.866592,-0.699117)">
        <g
           id="g33"
           transform="translate(10.142,16.844999)">
          <path
             d="m 3.375,-1.703125 c 0,-0.0625 -0.046875,-0.109375 -0.109375,-0.109375 -0.109375,0 -0.125,0.03125 -0.1875,0.234375 -0.3125,1.09375 -0.796875,1.453125 -1.1875,1.453125 -0.140625,0 -0.3125,-0.03125 -0.3125,-0.390625 0,-0.328125 0.140625,-0.671875 0.28125,-1.03125 L 2.6875,-3.78125 c 0.03125,-0.09375 0.125,-0.3125 0.125,-0.53125 0,-0.5 -0.359375,-0.953125 -0.953125,-0.953125 -1.09375,0 -1.53125,1.734375 -1.53125,1.828125 0,0.046875 0.046875,0.109375 0.125,0.109375 0.109375,0 0.125,-0.046875 0.171875,-0.21875 0.28125,-1 0.734375,-1.484375 1.203125,-1.484375 0.109375,0 0.3125,0.015625 0.3125,0.390625 0,0.3125 -0.15625,0.703125 -0.25,0.96875 l -0.84375,2.21875 C 0.984375,-1.25 0.90625,-1.0625 0.90625,-0.84375 c 0,0.53125 0.375,0.96875 0.953125,0.96875 1.09375,0 1.515625,-1.75 1.515625,-1.828125 z m -0.09375,-5.75 c 0,-0.1875 -0.140625,-0.40625 -0.40625,-0.40625 -0.265625,0 -0.578125,0.265625 -0.578125,0.578125 0,0.296875 0.25,0.390625 0.390625,0.390625 0.328125,0 0.59375,-0.3125 0.59375,-0.5625 z m 0,0"
             id="path32" />
        </g>
      </g>
    </g>
    <g
       inkscape:label=""
       transform="translate(70.914409,111.90178)"
       id="g45">
      <g
         fill="#000000"
         fill-opacity="1"
         id="g37"
         transform="matrix(0.352778,0,0,0.352778,-0.866592,-0.699117)">
        <g
           id="g36"
           transform="translate(1.306,14.263)">
          <path
             d="M 9.21875,-10.28125 C 9,-10.09375 8.375,-9.484375 8.375,-9.25 c 0,0.171875 0.140625,0.328125 0.328125,0.328125 0.140625,0 0.21875,-0.09375 0.34375,-0.265625 0.40625,-0.53125 0.875,-0.84375 1.265625,-1.078125 0.171875,-0.09375 0.296875,-0.15625 0.296875,-0.34375 0,-0.15625 -0.140625,-0.234375 -0.25,-0.328125 -0.46875,-0.328125 -0.59375,-0.78125 -0.640625,-1 -0.0625,-0.140625 -0.109375,-0.34375 -0.359375,-0.34375 -0.09375,0 -0.296875,0.07813 -0.296875,0.328125 0,0.15625 0.09375,0.578125 0.421875,1.03125 h -5.78125 c -0.296875,0 -0.59375,0 -0.59375,0.328125 0,0.3125 0.3125,0.3125 0.59375,0.3125 z m 0,0"
             id="path35" />
        </g>
      </g>
      <g
         fill="#000000"
         fill-opacity="1"
         id="g39"
         transform="matrix(0.352778,0,0,0.352778,-0.866592,-0.699117)">
        <g
           id="g38"
           transform="translate(1.98773,14.263)">
          <path
             d="m 7.875,-6.4375 c 0,-1.09375 -0.5625,-1.15625 -0.6875,-1.15625 -0.421875,0 -0.796875,0.40625 -0.796875,0.765625 0,0.203125 0.125,0.3125 0.1875,0.390625 0.171875,0.15625 0.625,0.625 0.625,1.515625 0,0.71875 -1.03125,4.75 -3.109375,4.75 -1.046875,0 -1.25,-0.875 -1.25,-1.515625 0,-0.859375 0.390625,-2.0625 0.859375,-3.3125 0.28125,-0.703125 0.34375,-0.875 0.34375,-1.21875 0,-0.71875 -0.515625,-1.375 -1.359375,-1.375 -1.578125,0 -2.21875,2.5 -2.21875,2.640625 0,0.0625 0.0625,0.15625 0.1875,0.15625 0.15625,0 0.171875,-0.078125 0.234375,-0.3125 C 1.3125,-6.59375 1.984375,-7.25 2.640625,-7.25 c 0.15625,0 0.4375,0 0.4375,0.5625 0,0.453125 -0.1875,0.953125 -0.4375,1.609375 C 1.8125,-2.875 1.8125,-2.34375 1.8125,-1.921875 c 0,0.375 0.046875,1.078125 0.578125,1.5625 0.625,0.53125 1.484375,0.53125 1.640625,0.53125 2.859375,0 3.84375,-5.625 3.84375,-6.609375 z m 0,0"
             id="path37" />
        </g>
      </g>
      <g
         fill="#000000"
         fill-opacity="1"
         id="g41"
         transform="matrix(0.352778,0,0,0.352778,-0.866592,-0.699117)">
        <g
           id="g40"
           transform="translate(10.142,16.844999)">
          <path
             d="m 3.375,-1.703125 c 0,-0.0625 -0.046875,-0.109375 -0.109375,-0.109375 -0.109375,0 -0.125,0.03125 -0.1875,0.234375 -0.3125,1.09375 -0.796875,1.453125 -1.1875,1.453125 -0.140625,0 -0.3125,-0.03125 -0.3125,-0.390625 0,-0.328125 0.140625,-0.671875 0.28125,-1.03125 L 2.6875,-3.78125 c 0.03125,-0.09375 0.125,-0.3125 0.125,-0.53125 0,-0.5 -0.359375,-0.953125 -0.953125,-0.953125 -1.09375,0 -1.53125,1.734375 -1.53125,1.828125 0,0.046875 0.046875,0.109375 0.125,0.109375 0.109375,0 0.125,-0.046875 0.171875,-0.21875 0.28125,-1 0.734375,-1.484375 1.203125,-1.484375 0.109375,0 0.3125,0.015625 0.3125,0.390625 0,0.3125 -0.15625,0.703125 -0.25,0.96875 l -0.84375,2.21875 C 0.984375,-1.25 0.90625,-1.0625 0.90625,-0.84375 c 0,0.53125 0.375,0.96875 0.953125,0.96875 1.09375,0 1.515625,-1.75 1.515625,-1.828125 z m -0.09375,-5.75 c 0,-0.1875 -0.140625,-0.40625 -0.40625,-0.40625 -0.265625,0 -0.578125,0.265625 -0.578125,0.578125 0,0.296875 0.25,0.390625 0.390625,0.390625 0.328125,0 0.59375,-0.3125 0.59375,-0.5625 z m 0,0"
             id="path39" />
        </g>
      </g>
      <g
         fill="#000000"
         fill-opacity="1"
         id="g44"
         transform="matrix(0.352778,0,0,0.352778,-0.866592,-0.699117)">
        <g
           id="g42"
           transform="translate(14.135037,16.844999)">
          <path
             d="M 4.765625,-2.765625 H 8.0625 c 0.171875,0 0.390625,0 0.390625,-0.203125 0,-0.234375 -0.203125,-0.234375 -0.390625,-0.234375 H 4.765625 V -6.5 c 0,-0.171875 0,-0.390625 -0.21875,-0.390625 -0.21875,0 -0.21875,0.203125 -0.21875,0.390625 v 3.296875 H 1.03125 c -0.171875,0 -0.390625,0 -0.390625,0.21875 0,0.21875 0.203125,0.21875 0.390625,0.21875 H 4.328125 V 0.53125 c 0,0.171875 0,0.390625 0.21875,0.390625 0.21875,0 0.21875,-0.203125 0.21875,-0.390625 z m 0,0"
             id="path41" />
        </g>
        <g
           id="g43"
           transform="translate(23.240116,16.844999)">
          <path
             d="m 3.4375,-7.65625 c 0,-0.28125 0,-0.296875 -0.234375,-0.296875 C 2.921875,-7.625 2.3125,-7.1875 1.09375,-7.1875 v 0.34375 c 0.265625,0 0.859375,0 1.53125,-0.296875 v 6.21875 c 0,0.4375 -0.046875,0.578125 -1.09375,0.578125 h -0.375 V 0 c 0.328125,-0.03125 1.484375,-0.03125 1.875,-0.03125 0.40625,0 1.546875,0 1.875,0.03125 v -0.34375 h -0.375 c -1.046875,0 -1.09375,-0.140625 -1.09375,-0.578125 z m 0,0"
             id="path42" />
        </g>
      </g>
    </g>
    <g
       inkscape:label=""
       transform="translate(106.20542,92.40855)"
       id="g55">
      <g
         fill="#000000"
         fill-opacity="1"
         id="g47"
         transform="matrix(0.352778,0,0,0.352778,-0.866592,-0.699117)">
        <g
           id="g46"
           transform="translate(1.306,14.263)">
          <path
             d="M 9.21875,-10.28125 C 9,-10.09375 8.375,-9.484375 8.375,-9.25 c 0,0.171875 0.140625,0.328125 0.328125,0.328125 0.140625,0 0.21875,-0.09375 0.34375,-0.265625 0.40625,-0.53125 0.875,-0.84375 1.265625,-1.078125 0.171875,-0.09375 0.296875,-0.15625 0.296875,-0.34375 0,-0.15625 -0.140625,-0.234375 -0.25,-0.328125 -0.46875,-0.328125 -0.59375,-0.78125 -0.640625,-1 -0.0625,-0.140625 -0.109375,-0.34375 -0.359375,-0.34375 -0.09375,0 -0.296875,0.07813 -0.296875,0.328125 0,0.15625 0.09375,0.578125 0.421875,1.03125 h -5.78125 c -0.296875,0 -0.59375,0 -0.59375,0.328125 0,0.3125 0.3125,0.3125 0.59375,0.3125 z m 0,0"
             id="path45" />
        </g>
      </g>
      <g
         fill="#000000"
         fill-opacity="1"
         id="g49"
         transform="matrix(0.352778,0,0,0.352778,-0.866592,-0.699117)">
        <g
           id="g48"
           transform="translate(1.98773,14.263)">
          <path
             d="m 7.875,-6.4375 c 0,-1.09375 -0.5625,-1.15625 -0.6875,-1.15625 -0.421875,0 -0.796875,0.40625 -0.796875,0.765625 0,0.203125 0.125,0.3125 0.1875,0.390625 0.171875,0.15625 0.625,0.625 0.625,1.515625 0,0.71875 -1.03125,4.75 -3.109375,4.75 -1.046875,0 -1.25,-0.875 -1.25,-1.515625 0,-0.859375 0.390625,-2.0625 0.859375,-3.3125 0.28125,-0.703125 0.34375,-0.875 0.34375,-1.21875 0,-0.71875 -0.515625,-1.375 -1.359375,-1.375 -1.578125,0 -2.21875,2.5 -2.21875,2.640625 0,0.0625 0.0625,0.15625 0.1875,0.15625 0.15625,0 0.171875,-0.078125 0.234375,-0.3125 C 1.3125,-6.59375 1.984375,-7.25 2.640625,-7.25 c 0.15625,0 0.4375,0 0.4375,0.5625 0,0.453125 -0.1875,0.953125 -0.4375,1.609375 C 1.8125,-2.875 1.8125,-2.34375 1.8125,-1.921875 c 0,0.375 0.046875,1.078125 0.578125,1.5625 0.625,0.53125 1.484375,0.53125 1.640625,0.53125 2.859375,0 3.84375,-5.625 3.84375,-6.609375 z m 0,0"
             id="path47" />
        </g>
      </g>
      <g
         fill="#000000"
         fill-opacity="1"
         id="g51"
         transform="matrix(0.352778,0,0,0.352778,-0.866592,-0.699117)">
        <g
           id="g50"
           transform="translate(10.142,16.844999)">
          <path
             d="m 3.375,-1.703125 c 0,-0.0625 -0.046875,-0.109375 -0.109375,-0.109375 -0.109375,0 -0.125,0.03125 -0.1875,0.234375 -0.3125,1.09375 -0.796875,1.453125 -1.1875,1.453125 -0.140625,0 -0.3125,-0.03125 -0.3125,-0.390625 0,-0.328125 0.140625,-0.671875 0.28125,-1.03125 L 2.6875,-3.78125 c 0.03125,-0.09375 0.125,-0.3125 0.125,-0.53125 0,-0.5 -0.359375,-0.953125 -0.953125,-0.953125 -1.09375,0 -1.53125,1.734375 -1.53125,1.828125 0,0.046875 0.046875,0.109375 0.125,0.109375 0.109375,0 0.125,-0.046875 0.171875,-0.21875 0.28125,-1 0.734375,-1.484375 1.203125,-1.484375 0.109375,0 0.3125,0.015625 0.3125,0.390625 0,0.3125 -0.15625,0.703125 -0.25,0.96875 l -0.84375,2.21875 C 0.984375,-1.25 0.90625,-1.0625 0.90625,-0.84375 c 0,0.53125 0.375,0.96875 0.953125,0.96875 1.09375,0 1.515625,-1.75 1.515625,-1.828125 z m -0.09375,-5.75 c 0,-0.1875 -0.140625,-0.40625 -0.40625,-0.40625 -0.265625,0 -0.578125,0.265625 -0.578125,0.578125 0,0.296875 0.25,0.390625 0.390625,0.390625 0.328125,0 0.59375,-0.3125 0.59375,-0.5625 z m 0,0"
             id="path49" />
        </g>
      </g>
      <g
         fill="#000000"
         fill-opacity="1"
         id="g54"
         transform="matrix(0.352778,0,0,0.352778,-0.866592,-0.699117)">
        <g
           id="g52"
           transform="translate(14.135037,16.844999)">
          <path
             d="M 4.765625,-2.765625 H 8.0625 c 0.171875,0 0.390625,0 0.390625,-0.203125 0,-0.234375 -0.203125,-0.234375 -0.390625,-0.234375 H 4.765625 V -6.5 c 0,-0.171875 0,-0.390625 -0.21875,-0.390625 -0.21875,0 -0.21875,0.203125 -0.21875,0.390625 v 3.296875 H 1.03125 c -0.171875,0 -0.390625,0 -0.390625,0.21875 0,0.21875 0.203125,0.21875 0.390625,0.21875 H 4.328125 V 0.53125 c 0,0.171875 0,0.390625 0.21875,0.390625 0.21875,0 0.21875,-0.203125 0.21875,-0.390625 z m 0,0"
             id="path51" />
        </g>
        <g
           id="g53"
           transform="translate(23.240116,16.844999)">
          <path
             d="m 3.4375,-7.65625 c 0,-0.28125 0,-0.296875 -0.234375,-0.296875 C 2.921875,-7.625 2.3125,-7.1875 1.09375,-7.1875 v 0.34375 c 0.265625,0 0.859375,0 1.53125,-0.296875 v 6.21875 c 0,0.4375 -0.046875,0.578125 -1.09375,0.578125 h -0.375 V 0 c 0.328125,-0.03125 1.484375,-0.03125 1.875,-0.03125 0.40625,0 1.546875,0 1.875,0.03125 v -0.34375 h -0.375 c -1.046875,0 -1.09375,-0.140625 -1.09375,-0.578125 z m 0,0"
             id="path52" />
        </g>
      </g>
    </g>
    <text
       xml:space="preserve"
       style="font-size:6.35px;writing-mode:lr-tb;direction:ltr;fill:#000000;fill-opacity:1;stroke:none;stroke-width:1;stroke-dasharray:none"
       x="89.521294"
       y="73.126404"
       id="text55"><tspan
         sodipodi:role="line"
         id="tspan55"
         style="font-size:6.35px;stroke-width:1"
         x="89.521294"
         y="73.126404">ou</tspan></text>
    <g
       inkscape:label=""
       transform="translate(152.96674,84.31697)"
       id="g69">
      <g
         fill="#000000"
         fill-opacity="1"
         id="g6-1-1-1"
         transform="matrix(0.352778,0,0,0.352778,-0.868451,-0.6152)">
        <g
           id="use5-1-1-1"
           transform="translate(1.993,16.475)">
          <path
             d="m 5.921875,-1.046875 c 0.375,1.03125 1.453125,1.21875 2.109375,1.21875 1.296875,0 2.078125,-1.140625 2.5625,-2.328125 0.390625,-1 1.03125,-3.265625 1.03125,-4.28125 0,-1.046875 -0.53125,-1.15625 -0.6875,-1.15625 -0.421875,0 -0.796875,0.40625 -0.796875,0.765625 0,0.203125 0.125,0.3125 0.203125,0.390625 0.15625,0.15625 0.609375,0.625 0.609375,1.515625 0,0.578125 -0.484375,2.203125 -0.84375,3.015625 -0.484375,1.046875 -1.125,1.734375 -2.015625,1.734375 -0.96875,0 -1.28125,-0.71875 -1.28125,-1.515625 0,-0.5 0.15625,-1.109375 0.234375,-1.390625 L 7.765625,-5.96875 C 7.859375,-6.3125 8,-6.921875 8,-6.984375 8,-7.25 7.796875,-7.421875 7.546875,-7.421875 c -0.5,0 -0.625,0.4375 -0.734375,0.84375 C 6.640625,-5.90625 5.921875,-3 5.859375,-2.625 5.78125,-2.328125 5.78125,-2.140625 5.78125,-1.75 c 0,0.40625 -0.546875,1.0625 -0.5625,1.09375 -0.1875,0.1875 -0.46875,0.484375 -1,0.484375 -1.359375,0 -1.359375,-1.296875 -1.359375,-1.578125 0,-0.5625 0.125,-1.3125 0.890625,-3.359375 0.203125,-0.53125 0.296875,-0.765625 0.296875,-1.109375 0,-0.71875 -0.515625,-1.375 -1.359375,-1.375 -1.578125,0 -2.21875,2.5 -2.21875,2.640625 0,0.0625 0.0625,0.15625 0.1875,0.15625 0.15625,0 0.171875,-0.078125 0.234375,-0.3125 C 1.328125,-6.625 2,-7.25 2.640625,-7.25 c 0.171875,0 0.4375,0.015625 0.4375,0.5625 0,0.09375 0,0.453125 -0.28125,1.21875 -0.8125,2.140625 -0.984375,2.84375 -0.984375,3.5 0,1.8125 1.46875,2.140625 2.359375,2.140625 0.28125,0 1.0625,0 1.75,-1.21875 z m 0,0"
             id="path11-1-1" />
        </g>
      </g>
      <g
         fill="#000000"
         fill-opacity="1"
         id="g7-1-1-1"
         transform="matrix(0.352778,0,0,0.352778,-0.868451,-0.6152)">
        <g
           id="use6-1-1"
           transform="translate(19.292755,16.475)">
          <path
             d="m 11.078125,-5.53125 c 0.25,0 0.515625,0 0.515625,-0.28125 C 11.59375,-6.125 11.296875,-6.125 11,-6.125 H 1.375 c -0.296875,0 -0.578125,0 -0.578125,0.3125 0,0.28125 0.25,0.28125 0.515625,0.28125 z M 11,-2.46875 c 0.296875,0 0.59375,0 0.59375,-0.296875 0,-0.296875 -0.265625,-0.296875 -0.515625,-0.296875 H 1.3125 c -0.265625,0 -0.515625,0 -0.515625,0.296875 0,0.296875 0.28125,0.296875 0.578125,0.296875 z m 0,0"
             id="path12-1-1" />
        </g>
      </g>
      <g
         fill="#000000"
         fill-opacity="1"
         id="g8-1-1"
         transform="matrix(0.352778,0,0,0.352778,-0.868451,-0.6152)">
        <g
           id="use7-1-1"
           transform="translate(36.470284,16.475)">
          <path
             d="m 5.921875,-1.046875 c 0.375,1.03125 1.453125,1.21875 2.109375,1.21875 1.296875,0 2.078125,-1.140625 2.5625,-2.328125 0.390625,-1 1.03125,-3.265625 1.03125,-4.28125 0,-1.046875 -0.53125,-1.15625 -0.6875,-1.15625 -0.421875,0 -0.796875,0.40625 -0.796875,0.765625 0,0.203125 0.125,0.3125 0.203125,0.390625 0.15625,0.15625 0.609375,0.625 0.609375,1.515625 0,0.578125 -0.484375,2.203125 -0.84375,3.015625 -0.484375,1.046875 -1.125,1.734375 -2.015625,1.734375 -0.96875,0 -1.28125,-0.71875 -1.28125,-1.515625 0,-0.5 0.15625,-1.109375 0.234375,-1.390625 L 7.765625,-5.96875 C 7.859375,-6.3125 8,-6.921875 8,-6.984375 8,-7.25 7.796875,-7.421875 7.546875,-7.421875 c -0.5,0 -0.625,0.4375 -0.734375,0.84375 C 6.640625,-5.90625 5.921875,-3 5.859375,-2.625 5.78125,-2.328125 5.78125,-2.140625 5.78125,-1.75 c 0,0.40625 -0.546875,1.0625 -0.5625,1.09375 -0.1875,0.1875 -0.46875,0.484375 -1,0.484375 -1.359375,0 -1.359375,-1.296875 -1.359375,-1.578125 0,-0.5625 0.125,-1.3125 0.890625,-3.359375 0.203125,-0.53125 0.296875,-0.765625 0.296875,-1.109375 0,-0.71875 -0.515625,-1.375 -1.359375,-1.375 -1.578125,0 -2.21875,2.5 -2.21875,2.640625 0,0.0625 0.0625,0.15625 0.1875,0.15625 0.15625,0 0.171875,-0.078125 0.234375,-0.3125 C 1.328125,-6.625 2,-7.25 2.640625,-7.25 c 0.171875,0 0.4375,0.015625 0.4375,0.5625 0,0.09375 0,0.453125 -0.28125,1.21875 -0.8125,2.140625 -0.984375,2.84375 -0.984375,3.5 0,1.8125 1.46875,2.140625 2.359375,2.140625 0.28125,0 1.0625,0 1.75,-1.21875 z m 0,0"
             id="path13-1-1-1" />
        </g>
      </g>
      <g
         fill="#000000"
         fill-opacity="1"
         id="g9-1-1-1"
         transform="matrix(0.352778,0,0,0.352778,-0.868451,-0.6152)">
        <g
           id="use8-1-1"
           transform="translate(52.805977,16.475)">
          <path
             d="m 11.34375,-3.953125 c 0.296875,0 0.609375,0 0.609375,-0.359375 0,-0.34375 -0.3125,-0.34375 -0.609375,-0.34375 h -9.3125 c -0.296875,0 -0.609375,0 -0.609375,0.34375 0,0.359375 0.3125,0.359375 0.609375,0.359375 z m 0,0"
             id="path14-1" />
        </g>
      </g>
      <g
         fill="#000000"
         fill-opacity="1"
         id="g10-1-1"
         transform="matrix(0.352778,0,0,0.352778,-0.868451,-0.6152)">
        <g
           id="use9-1-1"
           transform="translate(71.210999,9.6969995)">
          <path
             d="m 3.4375,-7.65625 c 0,-0.28125 0,-0.296875 -0.234375,-0.296875 C 2.921875,-7.625 2.3125,-7.1875 1.09375,-7.1875 v 0.34375 c 0.265625,0 0.859375,0 1.53125,-0.296875 v 6.21875 c 0,0.4375 -0.046875,0.578125 -1.09375,0.578125 h -0.375 V 0 c 0.328125,-0.03125 1.484375,-0.03125 1.875,-0.03125 0.40625,0 1.546875,0 1.875,0.03125 v -0.34375 h -0.375 c -1.046875,0 -1.09375,-0.140625 -1.09375,-0.578125 z m 0,0"
             id="path15-1" />
        </g>
      </g>
      <path
         fill="none"
         stroke-width="0.717"
         stroke-linecap="butt"
         stroke-linejoin="miter"
         stroke="#000000"
         stroke-opacity="1"
         stroke-miterlimit="10"
         d="M 68.749187,10.428 H 74.60075"
         id="path10-1-1"
         transform="scale(0.352778)" />
      <g
         fill="#000000"
         fill-opacity="1"
         id="g11-1"
         transform="matrix(0.352778,0,0,0.352778,-0.868451,-0.6152)">
        <g
           id="use10-1"
           transform="translate(71.210999,22.410999)">
          <path
             d="M 5.265625,-2.015625 H 5 c -0.046875,0.203125 -0.140625,0.875 -0.25,1.0625 C 4.65625,-0.84375 3.984375,-0.84375 3.625,-0.84375 H 1.40625 c 0.328125,-0.28125 1.0625,-1.046875 1.359375,-1.328125 1.828125,-1.671875 2.5,-2.296875 2.5,-3.484375 0,-1.375 -1.09375,-2.296875 -2.484375,-2.296875 -1.375,0 -2.203125,1.1875 -2.203125,2.21875 0,0.609375 0.53125,0.609375 0.5625,0.609375 0.265625,0 0.5625,-0.1875 0.5625,-0.5625 0,-0.34375 -0.21875,-0.5625 -0.5625,-0.5625 -0.09375,0 -0.125,0 -0.15625,0.015625 0.21875,-0.8125 0.875,-1.375 1.640625,-1.375 1.015625,0 1.640625,0.859375 1.640625,1.953125 C 4.265625,-4.640625 3.6875,-3.75 3,-2.984375 L 0.578125,-0.28125 V 0 h 4.375 z m 0,0"
             id="path16-1" />
        </g>
      </g>
    </g>
  </g>
  <g
     inkscape:label="Camada 1"
     inkscape:groupmode="layer"
     id="g125"
     transform="translate(-29.878968,17.411138)">
    <path
       style="fill:none;stroke:#000000;stroke-width:1;stroke-dasharray:none;marker-end:url(#Triangle)"
       d="M 29.878971,156.6615 H 130.5351"
       id="path70" />
    <circle
       style="fill:#000000;fill-opacity:1;stroke:none;stroke-width:1;stroke-dasharray:none"
       id="circle73"
       cx="77.844299"
       cy="156.83066"
       r="2.2120087" />
    <circle
       style="fill:#000000;fill-opacity:1;stroke:none;stroke-width:1;stroke-dasharray:none"
       id="circle74"
       cx="100.87058"
       cy="157.14682"
       r="2.2120087" />
    <g
       inkscape:label=""
       transform="translate(80.022682,149.11557)"
       id="g81">
      <g
         fill="#000000"
         fill-opacity="1"
         id="g76"
         transform="matrix(0.352778,0,0,0.352778,-0.866592,-0.699117)">
        <g
           id="g75"
           transform="translate(1.306,14.263)">
          <path
             d="M 9.21875,-10.28125 C 9,-10.09375 8.375,-9.484375 8.375,-9.25 c 0,0.171875 0.140625,0.328125 0.328125,0.328125 0.140625,0 0.21875,-0.09375 0.34375,-0.265625 0.40625,-0.53125 0.875,-0.84375 1.265625,-1.078125 0.171875,-0.09375 0.296875,-0.15625 0.296875,-0.34375 0,-0.15625 -0.140625,-0.234375 -0.25,-0.328125 -0.46875,-0.328125 -0.59375,-0.78125 -0.640625,-1 -0.0625,-0.140625 -0.109375,-0.34375 -0.359375,-0.34375 -0.09375,0 -0.296875,0.07813 -0.296875,0.328125 0,0.15625 0.09375,0.578125 0.421875,1.03125 h -5.78125 c -0.296875,0 -0.59375,0 -0.59375,0.328125 0,0.3125 0.3125,0.3125 0.59375,0.3125 z m 0,0"
             id="path75" />
        </g>
      </g>
      <g
         fill="#000000"
         fill-opacity="1"
         id="g78"
         transform="matrix(0.352778,0,0,0.352778,-0.866592,-0.699117)">
        <g
           id="g77"
           transform="translate(1.98773,14.263)">
          <path
             d="m 7.875,-6.4375 c 0,-1.09375 -0.5625,-1.15625 -0.6875,-1.15625 -0.421875,0 -0.796875,0.40625 -0.796875,0.765625 0,0.203125 0.125,0.3125 0.1875,0.390625 0.171875,0.15625 0.625,0.625 0.625,1.515625 0,0.71875 -1.03125,4.75 -3.109375,4.75 -1.046875,0 -1.25,-0.875 -1.25,-1.515625 0,-0.859375 0.390625,-2.0625 0.859375,-3.3125 0.28125,-0.703125 0.34375,-0.875 0.34375,-1.21875 0,-0.71875 -0.515625,-1.375 -1.359375,-1.375 -1.578125,0 -2.21875,2.5 -2.21875,2.640625 0,0.0625 0.0625,0.15625 0.1875,0.15625 0.15625,0 0.171875,-0.078125 0.234375,-0.3125 C 1.3125,-6.59375 1.984375,-7.25 2.640625,-7.25 c 0.15625,0 0.4375,0 0.4375,0.5625 0,0.453125 -0.1875,0.953125 -0.4375,1.609375 C 1.8125,-2.875 1.8125,-2.34375 1.8125,-1.921875 c 0,0.375 0.046875,1.078125 0.578125,1.5625 0.625,0.53125 1.484375,0.53125 1.640625,0.53125 2.859375,0 3.84375,-5.625 3.84375,-6.609375 z m 0,0"
             id="path76" />
        </g>
      </g>
      <g
         fill="#000000"
         fill-opacity="1"
         id="g80"
         transform="matrix(0.352778,0,0,0.352778,-0.866592,-0.699117)">
        <g
           id="g79"
           transform="translate(10.142,16.844999)">
          <path
             d="m 3.375,-1.703125 c 0,-0.0625 -0.046875,-0.109375 -0.109375,-0.109375 -0.109375,0 -0.125,0.03125 -0.1875,0.234375 -0.3125,1.09375 -0.796875,1.453125 -1.1875,1.453125 -0.140625,0 -0.3125,-0.03125 -0.3125,-0.390625 0,-0.328125 0.140625,-0.671875 0.28125,-1.03125 L 2.6875,-3.78125 c 0.03125,-0.09375 0.125,-0.3125 0.125,-0.53125 0,-0.5 -0.359375,-0.953125 -0.953125,-0.953125 -1.09375,0 -1.53125,1.734375 -1.53125,1.828125 0,0.046875 0.046875,0.109375 0.125,0.109375 0.109375,0 0.125,-0.046875 0.171875,-0.21875 0.28125,-1 0.734375,-1.484375 1.203125,-1.484375 0.109375,0 0.3125,0.015625 0.3125,0.390625 0,0.3125 -0.15625,0.703125 -0.25,0.96875 l -0.84375,2.21875 C 0.984375,-1.25 0.90625,-1.0625 0.90625,-0.84375 c 0,0.53125 0.375,0.96875 0.953125,0.96875 1.09375,0 1.515625,-1.75 1.515625,-1.828125 z m -0.09375,-5.75 c 0,-0.1875 -0.140625,-0.40625 -0.40625,-0.40625 -0.265625,0 -0.578125,0.265625 -0.578125,0.578125 0,0.296875 0.25,0.390625 0.390625,0.390625 0.328125,0 0.59375,-0.3125 0.59375,-0.5625 z m 0,0"
             id="path78" />
        </g>
      </g>
    </g>
    <g
       inkscape:label=""
       transform="translate(103.08259,148.6196)"
       id="g109">
      <g
         fill="#000000"
         fill-opacity="1"
         id="g101"
         transform="matrix(0.352778,0,0,0.352778,-0.866592,-0.699117)">
        <g
           id="g100"
           transform="translate(1.306,14.263)">
          <path
             d="M 9.21875,-10.28125 C 9,-10.09375 8.375,-9.484375 8.375,-9.25 c 0,0.171875 0.140625,0.328125 0.328125,0.328125 0.140625,0 0.21875,-0.09375 0.34375,-0.265625 0.40625,-0.53125 0.875,-0.84375 1.265625,-1.078125 0.171875,-0.09375 0.296875,-0.15625 0.296875,-0.34375 0,-0.15625 -0.140625,-0.234375 -0.25,-0.328125 -0.46875,-0.328125 -0.59375,-0.78125 -0.640625,-1 -0.0625,-0.140625 -0.109375,-0.34375 -0.359375,-0.34375 -0.09375,0 -0.296875,0.07813 -0.296875,0.328125 0,0.15625 0.09375,0.578125 0.421875,1.03125 h -5.78125 c -0.296875,0 -0.59375,0 -0.59375,0.328125 0,0.3125 0.3125,0.3125 0.59375,0.3125 z m 0,0"
             id="path99" />
        </g>
      </g>
      <g
         fill="#000000"
         fill-opacity="1"
         id="g103"
         transform="matrix(0.352778,0,0,0.352778,-0.866592,-0.699117)">
        <g
           id="g102"
           transform="translate(1.98773,14.263)">
          <path
             d="m 7.875,-6.4375 c 0,-1.09375 -0.5625,-1.15625 -0.6875,-1.15625 -0.421875,0 -0.796875,0.40625 -0.796875,0.765625 0,0.203125 0.125,0.3125 0.1875,0.390625 0.171875,0.15625 0.625,0.625 0.625,1.515625 0,0.71875 -1.03125,4.75 -3.109375,4.75 -1.046875,0 -1.25,-0.875 -1.25,-1.515625 0,-0.859375 0.390625,-2.0625 0.859375,-3.3125 0.28125,-0.703125 0.34375,-0.875 0.34375,-1.21875 0,-0.71875 -0.515625,-1.375 -1.359375,-1.375 -1.578125,0 -2.21875,2.5 -2.21875,2.640625 0,0.0625 0.0625,0.15625 0.1875,0.15625 0.15625,0 0.171875,-0.078125 0.234375,-0.3125 C 1.3125,-6.59375 1.984375,-7.25 2.640625,-7.25 c 0.15625,0 0.4375,0 0.4375,0.5625 0,0.453125 -0.1875,0.953125 -0.4375,1.609375 C 1.8125,-2.875 1.8125,-2.34375 1.8125,-1.921875 c 0,0.375 0.046875,1.078125 0.578125,1.5625 0.625,0.53125 1.484375,0.53125 1.640625,0.53125 2.859375,0 3.84375,-5.625 3.84375,-6.609375 z m 0,0"
             id="path101" />
        </g>
      </g>
      <g
         fill="#000000"
         fill-opacity="1"
         id="g105"
         transform="matrix(0.352778,0,0,0.352778,-0.866592,-0.699117)">
        <g
           id="g104"
           transform="translate(10.142,16.844999)">
          <path
             d="m 3.375,-1.703125 c 0,-0.0625 -0.046875,-0.109375 -0.109375,-0.109375 -0.109375,0 -0.125,0.03125 -0.1875,0.234375 -0.3125,1.09375 -0.796875,1.453125 -1.1875,1.453125 -0.140625,0 -0.3125,-0.03125 -0.3125,-0.390625 0,-0.328125 0.140625,-0.671875 0.28125,-1.03125 L 2.6875,-3.78125 c 0.03125,-0.09375 0.125,-0.3125 0.125,-0.53125 0,-0.5 -0.359375,-0.953125 -0.953125,-0.953125 -1.09375,0 -1.53125,1.734375 -1.53125,1.828125 0,0.046875 0.046875,0.109375 0.125,0.109375 0.109375,0 0.125,-0.046875 0.171875,-0.21875 0.28125,-1 0.734375,-1.484375 1.203125,-1.484375 0.109375,0 0.3125,0.015625 0.3125,0.390625 0,0.3125 -0.15625,0.703125 -0.25,0.96875 l -0.84375,2.21875 C 0.984375,-1.25 0.90625,-1.0625 0.90625,-0.84375 c 0,0.53125 0.375,0.96875 0.953125,0.96875 1.09375,0 1.515625,-1.75 1.515625,-1.828125 z m -0.09375,-5.75 c 0,-0.1875 -0.140625,-0.40625 -0.40625,-0.40625 -0.265625,0 -0.578125,0.265625 -0.578125,0.578125 0,0.296875 0.25,0.390625 0.390625,0.390625 0.328125,0 0.59375,-0.3125 0.59375,-0.5625 z m 0,0"
             id="path103" />
        </g>
      </g>
      <g
         fill="#000000"
         fill-opacity="1"
         id="g108"
         transform="matrix(0.352778,0,0,0.352778,-0.866592,-0.699117)">
        <g
           id="g106"
           transform="translate(14.135037,16.844999)">
          <path
             d="M 4.765625,-2.765625 H 8.0625 c 0.171875,0 0.390625,0 0.390625,-0.203125 0,-0.234375 -0.203125,-0.234375 -0.390625,-0.234375 H 4.765625 V -6.5 c 0,-0.171875 0,-0.390625 -0.21875,-0.390625 -0.21875,0 -0.21875,0.203125 -0.21875,0.390625 v 3.296875 H 1.03125 c -0.171875,0 -0.390625,0 -0.390625,0.21875 0,0.21875 0.203125,0.21875 0.390625,0.21875 H 4.328125 V 0.53125 c 0,0.171875 0,0.390625 0.21875,0.390625 0.21875,0 0.21875,-0.203125 0.21875,-0.390625 z m 0,0"
             id="path105" />
        </g>
        <g
           id="g107"
           transform="translate(23.240116,16.844999)">
          <path
             d="m 3.4375,-7.65625 c 0,-0.28125 0,-0.296875 -0.234375,-0.296875 C 2.921875,-7.625 2.3125,-7.1875 1.09375,-7.1875 v 0.34375 c 0.265625,0 0.859375,0 1.53125,-0.296875 v 6.21875 c 0,0.4375 -0.046875,0.578125 -1.09375,0.578125 h -0.375 V 0 c 0.328125,-0.03125 1.484375,-0.03125 1.875,-0.03125 0.40625,0 1.546875,0 1.875,0.03125 v -0.34375 h -0.375 c -1.046875,0 -1.09375,-0.140625 -1.09375,-0.578125 z m 0,0"
             id="path106" />
        </g>
      </g>
    </g>
    <g
       inkscape:label=""
       transform="translate(153.26217,155.88201)"
       id="g126">
      <g
         fill="#000000"
         fill-opacity="1"
         id="g3"
         transform="matrix(0.352778,0,0,0.352778,-0.868451,-0.638616)">
        <g
           id="use2"
           transform="translate(1.993,9.4040003)">
          <path
             d="m 5.921875,-1.046875 c 0.375,1.03125 1.453125,1.21875 2.109375,1.21875 1.296875,0 2.078125,-1.140625 2.5625,-2.328125 0.390625,-1 1.03125,-3.265625 1.03125,-4.28125 0,-1.046875 -0.53125,-1.15625 -0.6875,-1.15625 -0.421875,0 -0.796875,0.40625 -0.796875,0.765625 0,0.203125 0.125,0.3125 0.203125,0.390625 0.15625,0.15625 0.609375,0.625 0.609375,1.515625 0,0.578125 -0.484375,2.203125 -0.84375,3.015625 -0.484375,1.046875 -1.125,1.734375 -2.015625,1.734375 -0.96875,0 -1.28125,-0.71875 -1.28125,-1.515625 0,-0.5 0.15625,-1.109375 0.234375,-1.390625 L 7.765625,-5.96875 C 7.859375,-6.3125 8,-6.921875 8,-6.984375 8,-7.25 7.796875,-7.421875 7.546875,-7.421875 c -0.5,0 -0.625,0.4375 -0.734375,0.84375 C 6.640625,-5.90625 5.921875,-3 5.859375,-2.625 5.78125,-2.328125 5.78125,-2.140625 5.78125,-1.75 c 0,0.40625 -0.546875,1.0625 -0.5625,1.09375 -0.1875,0.1875 -0.46875,0.484375 -1,0.484375 -1.359375,0 -1.359375,-1.296875 -1.359375,-1.578125 0,-0.5625 0.125,-1.3125 0.890625,-3.359375 0.203125,-0.53125 0.296875,-0.765625 0.296875,-1.109375 0,-0.71875 -0.515625,-1.375 -1.359375,-1.375 -1.578125,0 -2.21875,2.5 -2.21875,2.640625 0,0.0625 0.0625,0.15625 0.1875,0.15625 0.15625,0 0.171875,-0.078125 0.234375,-0.3125 C 1.328125,-6.625 2,-7.25 2.640625,-7.25 c 0.171875,0 0.4375,0.015625 0.4375,0.5625 0,0.09375 0,0.453125 -0.28125,1.21875 -0.8125,2.140625 -0.984375,2.84375 -0.984375,3.5 0,1.8125 1.46875,2.140625 2.359375,2.140625 0.28125,0 1.0625,0 1.75,-1.21875 z m 0,0"
             id="path5" />
        </g>
      </g>
      <g
         fill="#000000"
         fill-opacity="1"
         id="g4-1"
         transform="matrix(0.352778,0,0,0.352778,-0.868451,-0.638616)">
        <g
           id="use3-1"
           transform="translate(19.292755,9.4040003)">
          <path
             d="m 11.078125,-5.53125 c 0.25,0 0.515625,0 0.515625,-0.28125 C 11.59375,-6.125 11.296875,-6.125 11,-6.125 H 1.375 c -0.296875,0 -0.578125,0 -0.578125,0.3125 0,0.28125 0.25,0.28125 0.515625,0.28125 z M 11,-2.46875 c 0.296875,0 0.59375,0 0.59375,-0.296875 0,-0.296875 -0.265625,-0.296875 -0.515625,-0.296875 H 1.3125 c -0.265625,0 -0.515625,0 -0.515625,0.296875 0,0.296875 0.28125,0.296875 0.578125,0.296875 z m 0,0"
             id="path6-1-1" />
        </g>
      </g>
      <g
         fill="#000000"
         fill-opacity="1"
         id="g5-1"
         transform="matrix(0.352778,0,0,0.352778,-0.868451,-0.638616)">
        <g
           id="use4-1"
           transform="translate(36.470284,9.4040003)">
          <path
             d="m 5.921875,-1.046875 c 0.375,1.03125 1.453125,1.21875 2.109375,1.21875 1.296875,0 2.078125,-1.140625 2.5625,-2.328125 0.390625,-1 1.03125,-3.265625 1.03125,-4.28125 0,-1.046875 -0.53125,-1.15625 -0.6875,-1.15625 -0.421875,0 -0.796875,0.40625 -0.796875,0.765625 0,0.203125 0.125,0.3125 0.203125,0.390625 0.15625,0.15625 0.609375,0.625 0.609375,1.515625 0,0.578125 -0.484375,2.203125 -0.84375,3.015625 -0.484375,1.046875 -1.125,1.734375 -2.015625,1.734375 -0.96875,0 -1.28125,-0.71875 -1.28125,-1.515625 0,-0.5 0.15625,-1.109375 0.234375,-1.390625 L 7.765625,-5.96875 C 7.859375,-6.3125 8,-6.921875 8,-6.984375 8,-7.25 7.796875,-7.421875 7.546875,-7.421875 c -0.5,0 -0.625,0.4375 -0.734375,0.84375 C 6.640625,-5.90625 5.921875,-3 5.859375,-2.625 5.78125,-2.328125 5.78125,-2.140625 5.78125,-1.75 c 0,0.40625 -0.546875,1.0625 -0.5625,1.09375 -0.1875,0.1875 -0.46875,0.484375 -1,0.484375 -1.359375,0 -1.359375,-1.296875 -1.359375,-1.578125 0,-0.5625 0.125,-1.3125 0.890625,-3.359375 0.203125,-0.53125 0.296875,-0.765625 0.296875,-1.109375 0,-0.71875 -0.515625,-1.375 -1.359375,-1.375 -1.578125,0 -2.21875,2.5 -2.21875,2.640625 0,0.0625 0.0625,0.15625 0.1875,0.15625 0.15625,0 0.171875,-0.078125 0.234375,-0.3125 C 1.328125,-6.625 2,-7.25 2.640625,-7.25 c 0.171875,0 0.4375,0.015625 0.4375,0.5625 0,0.09375 0,0.453125 -0.28125,1.21875 -0.8125,2.140625 -0.984375,2.84375 -0.984375,3.5 0,1.8125 1.46875,2.140625 2.359375,2.140625 0.28125,0 1.0625,0 1.75,-1.21875 z m 0,0"
             id="path7-1" />
        </g>
      </g>
    </g>
  </g>
</svg>
