<svg xmlns="http://www.w3.org/2000/svg" viewBox="0 0 200 200" width="400px" height="400px">
  <g data-name="Polygon" fill="#b4d1ff" stroke="#70009f">
    <path d="M6.1 57l20.6 42 23.6 12.4 33.2-49.6-17.1-8.9-21.5 8.6 26.6 93.8 35.4 14.7 28.5-45 14-6 10 30.1-3 31-24.6 4.7-20.9-55.1 28-75.1L148 26l-3-9-14.1-4.4-53.4 35.2L37.4 7.4 6.1 57z"/>
  </g>
  <g data-name="Arrows">
    <g data-name="Arrow bodies" stroke="red">
      <path d="M120.8 103.3l4.6-12.5"/>
      <path d="M122.9 17.8l-11.1 7.3"/>
      <path d="M54 24.1l-8.2-8.2"/>
      <path d="M14.7 74.6l4.7 9.6"/>
      <path d="M59.9 97l5-7.4"/>
      <path d="M62.6 54.4l-10.2 4.1"/>
      <path d="M63 125.5l3 10.4"/>
      <path d="M149.8 120.1l2.8 8.4"/>
      <path d="M151.9 180.8l-9.4 1.8"/>
    </g>
    <g data-name="Arrow tips" fill="red">
      <path d="M126.6 92.5l.6-6.5-3.8 5.3 3.2 1.2z"/>
      <path d="M111.8 23.1l-4.3 4.9 6.2-2.1-1.9-2.8z"/>
      <path d="M47.8 15.5l-5.6-3.3 3.2 5.7 2.4-2.4z"/>
      <path d="M17.4 83.9l4.3 4.9-1.3-6.4-3 1.5z"/>
      <path d="M65.7 91.5l2.1-6.2-4.9 4.3 2.8 1.9z"/>
      <path d="M52.8 56.5l-5.2 3.9 6.5-.8-1.3-3.1z"/>
      <path d="M64 135.2l3.4 5.8-.1-6.8z"/>
      <path d="M150.6 127.9l3.6 5.4-.4-6.5-3.2 1.1h0z"/>
      <path d="M143.3 180.8l-5.9 2.8 6.5.5-.6-3.3z"/>
    </g>
  </g>
  <g data-name="Text" font-family="DejaVu Sans, sans-serif" font-size="8px">
    <style>.plus1 { fill:#9f0011; } .minus1 { fill:#0042df; }</style>
    <g data-name="Line 1">
      <text transform="translate(20 42)" class="minus1">−1</text>
      <text transform="translate(52 42)" class="plus1">+1</text>
      <text transform="translate(95 42)" class="minus1">−1</text>
      <text transform="translate(129 42)" class="plus1">+1</text>
      <text transform="translate(162 30)">wn = 0</text>
    </g>
    <g data-name="Line 2">
      <text transform="translate(58 80)" class="plus1">+1</text>
      <text transform="translate(115 80)" class="plus1">+1</text>
      <text transform="translate(162 67)">wn = 2</text>
    </g>
    <g data-name="Line 3">
      <text transform="translate(101 118)" class="plus1">+1</text>
      <text transform="translate(162 106)">wn = 1</text>
    </g>
    <g data-name="Line 4">
      <text transform="translate(126 146)" class="plus1">+1</text>
      <text transform="translate(143 146)" class="minus1">−1</text>
      <text transform="translate(162 135)" >wn = 0</text>
    </g>
    <g data-name="Line 5">
      <text transform="translate(144 172)" class="minus1">−1</text>
      <text transform="translate(162 160)">wn = –1</text>
    </g>
  </g>
  <g data-name="Rays" stroke="#666" stroke-width="2">
    <path d="M10 33h161"/>
    <path d="M60 70h111"/>
    <path d="M87 109h84"/>
    <path d="M121 138h50"/>
    <path d="M135 163h36"/>
  </g>
  <g data-name="Points" fill="#666">
    <circle cx="10" cy="33" r="3.5"/>
    <circle cx="60" cy="70" r="3.5"/>
    <circle cx="87" cy="109" r="3.5"/>
    <circle cx="121" cy="138" r="3.5"/>
    <circle cx="135" cy="163" r="3.5"/>
  </g>
</svg>